# xmcd
#
# Track frame offsets:
#	150
#	19652
#	31391
#	48033
#	65163
#	79954
#	94096
#	109687
#	123460
#	140597
#	152507
#	169581
#	183030
#
# Disc length: 2568 seconds
# Revision: 0
# Processed by: cddbd v1.5.2PL0 Copyright (c) Steve Scherf et al.
# Submitted via: dBpowerAMP V12.0
#
DISCID=a10a060d
DTITLE=Ledfoot - The Devils Songbook
DYEAR=2007
DGENRE=Blues
TTITLE0=Dead of the Night
TTITLE1=Save My Ass
TTITLE2=How You Loose Your Innocence
TTITLE3=The Cold Light of Day
TTITLE4=Man Gone Bad
TTITLE5=Sound of the Sun Going Down
TTITLE6=Enemy
TTITLE7=Heaven Help Me
TTITLE8=I'll Dream of You Tonight
TTITLE9=My Hard Livin'
TTITLE10=Bringin' You Down
TTITLE11=Dead Man's Drop
TTITLE12=Diggin' My Own Grave
EXTD=
EXTT0=
EXTT1=
EXTT2=
EXTT3=
EXTT4=
EXTT5=
EXTT6=
EXTT7=
EXTT8=
EXTT9=
EXTT10=
EXTT11=
EXTT12=
PLAYORDER=
